<svg xmlns="http://www.w3.org/2000/svg" style="display: none;">
  <symbol id="icon-cart" viewBox="0 0 24 24" fill="none">
    <path d="M3 4h2.2a1 1 0 0 1 .98.79L6.6 7h11.55a1 1 0 0 1 .98 1.21l-1.1 5A2 2 0 0 1 16.08 15H8.4a2 2 0 0 1-1.96-1.58L5.1 6.7" stroke="currentColor" stroke-width="1.7" stroke-linecap="round" stroke-linejoin="round"/>
    <circle cx="9.2" cy="19.2" r="1.45" fill="currentColor"/>
    <circle cx="16.6" cy="19.2" r="1.45" fill="currentColor"/>
  </symbol>
  <symbol id="icon-user" viewBox="0 0 24 24" fill="none">
    <path d="M12 12a4 4 0 1 0 0-8 4 4 0 0 0 0 8Z" stroke="currentColor" stroke-width="1.7"/>
    <path d="M4.5 20a7.5 7.5 0 0 1 15 0" stroke="currentColor" stroke-width="1.7" stroke-linecap="round"/>
  </symbol>
  <symbol id="icon-shield" viewBox="0 0 24 24" fill="none">
    <path d="M12 3l6 2.5v5.7c0 4.1-2.55 7.88-6 9.8-3.45-1.92-6-5.7-6-9.8V5.5L12 3Z" stroke="currentColor" stroke-width="1.7" stroke-linejoin="round"/>
    <path d="m9.3 11.9 1.8 1.8 3.7-4.1" stroke="currentColor" stroke-width="1.7" stroke-linecap="round" stroke-linejoin="round"/>
  </symbol>
  <symbol id="icon-search" viewBox="0 0 24 24" fill="none">
    <circle cx="11" cy="11" r="6.2" stroke="currentColor" stroke-width="1.7"/>
    <path d="m16 16 4 4" stroke="currentColor" stroke-width="1.7" stroke-linecap="round"/>
  </symbol>
  <symbol id="icon-sun" viewBox="0 0 24 24" fill="none">
    <circle cx="12" cy="12" r="4.2" stroke="currentColor" stroke-width="1.7"/>
    <path d="M12 2.7v2.1M12 19.2v2.1M21.3 12h-2.1M4.8 12H2.7M18.58 5.42l-1.48 1.48M6.9 17.1l-1.48 1.48M18.58 18.58l-1.48-1.48M6.9 6.9 5.42 5.42" stroke="currentColor" stroke-width="1.7" stroke-linecap="round"/>
  </symbol>
  <symbol id="icon-moon" viewBox="0 0 24 24" fill="none">
    <path d="M19.2 14.6A7.8 7.8 0 0 1 9.4 4.8a8.4 8.4 0 1 0 9.8 9.8Z" stroke="currentColor" stroke-width="1.7" stroke-linejoin="round"/>
  </symbol>
  <symbol id="icon-close" viewBox="0 0 24 24" fill="none">
    <path d="M6 6l12 12M18 6 6 18" stroke="currentColor" stroke-width="1.7" stroke-linecap="round"/>
  </symbol>
  <symbol id="icon-arrow-right" viewBox="0 0 24 24" fill="none">
    <path d="M5 12h13M13 6l6 6-6 6" stroke="currentColor" stroke-width="1.7" stroke-linecap="round" stroke-linejoin="round"/>
  </symbol>
  <symbol id="icon-box" viewBox="0 0 24 24" fill="none">
    <path d="m12 3 8 4.3v9.4L12 21l-8-4.3V7.3L12 3Z" stroke="currentColor" stroke-width="1.7" stroke-linejoin="round"/>
    <path d="m4 7.3 8 4.4 8-4.4M12 11.7V21" stroke="currentColor" stroke-width="1.7" stroke-linejoin="round"/>
  </symbol>
  <symbol id="icon-chart" viewBox="0 0 24 24" fill="none">
    <path d="M4 19h16M7 17V9M12 17V5M17 17v-7" stroke="currentColor" stroke-width="1.7" stroke-linecap="round"/>
  </symbol>
  <symbol id="icon-orders" viewBox="0 0 24 24" fill="none">
    <path d="M7 5.5h10M7 10.5h10M7 15.5h6" stroke="currentColor" stroke-width="1.7" stroke-linecap="round"/>
    <path d="M5 3.5h14A1.5 1.5 0 0 1 20.5 5v14A1.5 1.5 0 0 1 19 20.5H5A1.5 1.5 0 0 1 3.5 19V5A1.5 1.5 0 0 1 5 3.5Z" stroke="currentColor" stroke-width="1.7"/>
  </symbol>
  <symbol id="icon-spark" viewBox="0 0 24 24" fill="none">
    <path d="m12 3 1.6 4.4L18 9l-4.4 1.6L12 15l-1.6-4.4L6 9l4.4-1.6L12 3ZM18.5 15.5l.8 2.2 2.2.8-2.2.8-.8 2.2-.8-2.2-2.2-.8 2.2-.8.8-2.2ZM5.2 14l.96 2.64L8.8 17.6l-2.64.96L5.2 21.2l-.96-2.64L1.6 17.6l2.64-.96L5.2 14Z" stroke="currentColor" stroke-width="1.4" stroke-linejoin="round"/>
  </symbol>
</svg>
